<?xml version="1.0" encoding="UTF-8"?>
<!DOCTYPE svg PUBLIC "-//W3C//DTD SVG 1.1//EN" "http://www.w3.org/Graphics/SVG/1.1/DTD/svg11.dtd">
<!-- Creator: CorelDRAW X6 -->
<svg xmlns="http://www.w3.org/2000/svg" xml:space="preserve" width="77mm" height="15.5mm" version="1.1" style="shape-rendering:geometricPrecision; text-rendering:geometricPrecision; image-rendering:optimizeQuality; fill-rule:evenodd; clip-rule:evenodd"
viewBox="0 0 7700 1550"
 xmlns:xlink="http://www.w3.org/1999/xlink">
 <defs>
  <style type="text/css">
   <![CDATA[
    .str1 {stroke:#2B2A29;stroke-width:7.62}
    .str0 {stroke:#FEFEFE;stroke-width:20}
    .fil13 {fill:none}
    .fil17 {fill:#009846}
    .fil18 {fill:#2B2A29}
    .fil0 {fill:#812A69}
    .fil1 {fill:#FEFEFE}
    .fil15 {fill:#FFED00}
    .fil12 {fill:#702C8C}
    .fil16 {fill:#59B039}
    .fil14 {fill:#FBAB0D}
    .fil7 {fill:#1E4C9A;fill-rule:nonzero}
    .fil5 {fill:#812A69;fill-rule:nonzero}
    .fil19 {fill:#E5097F;fill-rule:nonzero}
    .fil4 {fill:#F6B818;fill-rule:nonzero}
    .fil10 {fill:#00AEEE;fill-rule:nonzero}
    .fil11 {fill:#702C8D;fill-rule:nonzero}
    .fil6 {fill:#A6CE39;fill-rule:nonzero}
    .fil9 {fill:#ED1C24;fill-rule:nonzero}
    .fil8 {fill:#FECA08;fill-rule:nonzero}
    .fil2 {fill:#824B96;fill-rule:nonzero}
    .fil3 {fill:#E5097F;fill-rule:nonzero}
   ]]>
  </style>
 </defs>
 <g id="Слой_x0020_1">
  <metadata id="CorelCorpID_0Corel-Layer"/>
  <g id="МихайловскийМалявка_Кривые1.cdr">
   <path class="fil0 str0" d="M6484 1451c-10,8 -19,15 -31,20 -31,18 -62,34 -95,49 -32,14 -65,28 -98,41 -15,6 -29,9 -45,9 -43,0 -75,-26 -98,-59 -5,-7 -9,-14 -13,-21 -14,7 -30,10 -48,10 -34,0 -67,0 -101,-1 -36,0 -72,-3 -108,-7l-10 -1 -9 -3c-13,-4 -24,-10 -35,-18 -8,5 -17,8 -26,11 -18,5 -36,7 -54,7 -21,1 -41,1 -62,1 -25,0 -49,0 -74,-1 -18,0 -36,-1 -54,-4 -5,-1 -11,-2 -16,-3 -10,5 -20,8 -31,11 -23,6 -47,10 -70,13 -26,3 -52,5 -77,6 -21,1 -41,1 -62,1 -27,0 -52,-11 -71,-29 -7,2 -14,4 -22,5 -15,2 -30,3 -44,3 -20,1 -40,1 -60,1 -20,0 -41,0 -61,1 -18,0 -36,0 -55,-2 -31,-2 -59,-18 -77,-43 -4,-5 -7,-10 -9,-16 -22,20 -47,35 -75,46 -30,11 -61,17 -93,19 -24,2 -48,2 -71,2 -22,1 -44,1 -66,2 -23,0 -46,1 -69,1l-40 0c-19,0 -38,-1 -56,-3 -41,-3 -80,-17 -105,-50 -15,22 -38,38 -69,42l-1 0 -1 0c-20,2 -41,3 -61,3l-83 0c-14,0 -28,0 -42,-1 -14,0 -28,-1 -42,-3 -13,-1 -26,-4 -39,-8 -20,31 -53,50 -91,50 -17,0 -34,-6 -50,-10 -19,-5 -39,-11 -58,-17 -22,-7 -44,-15 -66,-24 -13,-6 -25,-12 -36,-21l-1 0c-11,13 -26,23 -44,28 -11,3 -22,5 -34,5 -13,1 -27,1 -40,1l-37 0c-25,0 -50,-1 -74,-2 -22,-1 -45,-2 -67,-4 -38,-3 -71,-22 -89,-57 -9,-19 -12,-38 -12,-59 0,-3 0,-7 -1,-10 -29,46 -69,83 -118,108 -52,27 -109,40 -168,40 -43,0 -92,-2 -133,-18 -1,0 -1,-1 -2,-1 -12,4 -25,6 -37,6 -34,0 -67,0 -101,-1 -36,0 -72,-3 -108,-7l-10 -1 -9 -3c-13,-4 -24,-10 -35,-18 -8,5 -17,8 -26,11 -18,5 -36,7 -54,7 -21,1 -41,1 -62,1 -25,0 -49,0 -74,-1 -18,0 -36,-1 -54,-4 -22,-3 -42,-10 -60,-23 -55,20 -124,29 -176,29 -40,0 -80,-1 -119,-10 -23,-5 -45,-13 -67,-21 -2,-1 -4,-2 -6,-2l-49 -18 -9 -51c-7,-43 -14,-85 -18,-128l-29 15c-44,23 -94,36 -145,36 -53,0 -105,-12 -151,-38l-26 -15c-4,43 -11,87 -18,130l-9 51 -49 18c-2,1 -4,2 -6,2 -22,9 -43,16 -67,21 -39,8 -79,10 -119,10 -65,-1 -156,-14 -212,-46l-59 -33 16 -66c6,-26 12,-53 16,-80 -10,1 -20,3 -30,3 -95,7 -188,-19 -274,-59 -4,-2 -7,-4 -11,-6 -2,-1 -4,-2 -6,-3l-130 60 -44 -61c-17,-24 -50,-40 -78,-49l-1 0c0,0 0,0 0,0 -2,0 -3,1 -5,1 -4,1 -9,1 -13,2l-2 0 -1 0c-3,0 -5,0 -8,0l-17 1c-3,0 -6,0 -9,0 -104,-3 -190,-68 -211,-167 -45,-45 -73,-108 -69,-172 1,-16 5,-32 11,-47 4,-61 34,-118 84,-150 2,-57 27,-112 67,-152 36,-50 90,-79 151,-86 -5,-36 -5,-71 3,-108 24,-106 106,-171 201,-213 2,-1 4,-2 5,-2 59,-23 122,-32 185,-25 153,18 281,127 384,235 119,13 254,36 336,130 0,0 0,0 0,0l20 8 14 16c14,15 26,33 37,51 15,23 28,47 41,70 17,30 32,60 47,91 15,-31 31,-61 47,-91 13,-24 26,-47 41,-70 11,-17 22,-35 36,-50l15 -17 21 -8c74,-28 165,-37 244,-35 82,2 177,17 250,56l62 33 -16 68c-32,134 -43,276 -43,413 0,35 1,71 2,106 25,-93 52,-185 80,-276l0 -1 0 -1c8,-25 25,-46 47,-59 16,-10 34,-15 53,-17 15,-2 30,-3 44,-3 20,-1 39,-1 59,-1 28,0 56,0 83,1 20,1 41,2 61,5 19,3 37,8 54,17 23,12 41,31 51,56l3 7 2 7c23,100 45,201 65,302 9,43 18,87 26,131 3,-1 5,-1 8,-1 3,-15 3,-32 3,-46 0,-41 0,-82 -2,-123 -1,-31 -2,-63 -3,-94 -1,-26 -2,-51 -3,-77 -1,-25 -1,-50 -1,-74 0,-23 6,-45 19,-65 20,-31 54,-46 90,-46 46,0 92,0 138,-1 48,-1 96,-1 145,-2 56,0 112,-1 169,-1 28,0 56,1 83,2 27,1 55,3 82,7 53,6 94,46 94,100 0,0 0,0 0,0 9,-9 19,-18 30,-26 43,-33 92,-57 143,-74 59,-19 120,-26 182,-26 28,0 57,1 85,3 25,2 50,5 74,9 23,4 46,11 68,21 4,2 8,4 11,6 30,-21 66,-31 101,-37 44,-7 89,-8 133,-8 50,0 100,6 148,20 49,14 95,36 134,68 7,6 14,12 21,18 7,-40 39,-69 79,-79 20,-5 40,-7 60,-8 27,-2 55,-2 82,-2l117 0c24,0 47,8 64,23 17,-14 40,-23 64,-23 19,0 39,1 58,2 24,2 49,4 73,6 23,2 45,5 68,9 8,2 17,3 25,6 34,10 61,32 71,63 9,-24 25,-44 47,-58 16,-10 34,-15 53,-17 15,-2 30,-3 44,-3 20,-1 39,-1 59,-1 28,0 56,0 83,1 20,1 41,2 61,5 19,3 37,8 54,17 23,12 41,31 51,56l3 7 2 7c23,100 45,201 65,302 9,43 17,86 26,129 22,-10 43,-20 65,-31 25,-12 49,-26 72,-41l4 -3 4 -2c6,-3 12,-5 17,-8 15,-7 30,-11 47,-11 44,0 75,26 99,60 0,0 0,0 0,0 -3,-35 -6,-70 -9,-105 -3,-33 -6,-66 -8,-99 -2,-26 -4,-52 -6,-78 -1,-17 -3,-34 -3,-52 0,-25 2,-50 11,-74 9,-23 23,-43 43,-58 30,-23 68,-34 105,-40 44,-7 89,-8 133,-8 50,0 100,6 148,20 41,12 80,30 116,54 4,-6 9,-11 15,-17 17,-15 37,-23 58,-27l5 -1 5 0c13,-1 26,-2 38,-3 17,-1 35,-2 52,-4 19,-1 39,-2 58,-3 18,-1 37,-1 55,-1 16,0 31,3 46,8 11,4 22,9 31,16 8,-6 16,-10 26,-14 25,-10 55,-11 82,-11 12,0 23,1 35,1 13,1 26,2 38,3 13,1 27,3 40,4 12,2 24,3 35,6l3 1 3 1c49,14 82,56 82,108 0,15 -3,30 -9,45 -2,5 -4,11 -6,16l-1 3 -1 3c-22,48 -46,96 -71,143 -19,36 -39,72 -60,108 1,15 1,31 1,46 0,24 1,47 1,71 0,26 0,52 -1,77 0,27 -1,53 -3,79 -4,53 -42,93 -95,101l-3 0 -3 0c-38,3 -75,4 -113,4 -19,0 -39,0 -58,-1 -20,0 -39,-1 -59,-3l-3 0 -3 -1c-16,-3 -32,-8 -46,-17 -31,-21 -44,-54 -44,-90l0 -1 0 -1c0,-5 0,-9 0,-14 -7,20 -18,38 -32,54 -24,27 -54,46 -88,59 -30,11 -61,17 -93,19 -24,2 -48,2 -71,2 -22,1 -44,1 -66,2 -23,0 -46,1 -69,1l-40 0c-19,0 -38,-1 -56,-3 -40,-3 -78,-17 -103,-48zm621 -223l0 -67c0,-5 0,-11 0,-16 -1,3 -2,6 -3,9 -4,12 -10,23 -16,34 8,12 14,26 19,40zm-1589 -236c-1,2 -2,4 -3,6 -13,24 -27,48 -42,71 -5,8 -10,15 -15,23 7,14 14,29 21,43 7,-28 15,-56 22,-83 5,-20 11,-40 16,-59z"/>
   <path class="fil1 str0" d="M3624 1028l37 82c-8,-30 -11,-62 -11,-93 0,-41 10,-79 29,-115 20,-38 47,-69 81,-95 37,-29 80,-49 124,-64 53,-17 108,-23 163,-23 27,0 54,1 81,3 23,2 45,4 68,8 17,3 36,8 52,16 18,9 33,23 33,44 0,9 0,17 -1,26 0,13 -1,25 -2,38 -1,14 -1,28 -2,42 0,13 -1,26 -1,38l0 0 0 0c-2,70 -4,140 -5,210 -1,48 -2,97 -5,145 -1,28 -3,59 -9,87 -4,22 -14,49 -40,52l0 0 0 0c-18,2 -37,2 -55,2l-83 0c-13,0 -27,0 -40,-1 -13,0 -25,-1 -38,-2 -11,-1 -22,-3 -32,-7 -13,-5 -24,-14 -28,-27 -13,16 -25,33 -35,51l0 1 0 1c-9,14 -23,23 -41,23 -8,0 -26,-6 -34,-8 -19,-5 -38,-11 -57,-16 -20,-6 -40,-13 -59,-21 -17,-7 -37,-18 -42,-37l-2 12 -53 -4c-2,15 -10,29 -27,34 -6,2 -13,3 -19,3 -12,1 -25,1 -37,1l-37 0c-24,0 -48,-1 -72,-2 -22,-1 -43,-2 -65,-4 -16,-1 -32,-8 -40,-23 -5,-10 -6,-23 -6,-34 -4,-54 -7,-109 -10,-164 -3,-50 -5,-99 -7,-149 -6,0 -11,0 -17,0 -6,0 -12,0 -18,0 -4,50 -9,101 -19,151 -7,34 -16,77 -33,107 -24,44 -59,79 -103,102 -44,23 -91,33 -141,33 -34,0 -79,-2 -111,-14 -8,-3 -18,-7 -27,-12 -8,9 -20,14 -35,14 -33,0 -67,0 -100,-1 -34,0 -68,-3 -103,-7l-3 0 -3 -1c-7,-2 -14,-6 -20,-10 -11,-9 -16,-22 -18,-36 0,0 0,0 0,0 -7,3 -15,5 -22,5 -1,0 -2,0 -3,0 -1,3 -2,5 -2,8 -6,14 -18,22 -32,26 -12,4 -26,4 -39,5 -20,1 -40,1 -60,1 -24,0 -48,0 -73,-1 -15,0 -31,-1 -46,-3 -12,-2 -25,-5 -35,-13 -8,-7 -13,-16 -14,-26l-13 7c-47,27 -130,38 -183,38 -35,0 -72,-1 -106,-8 -21,-4 -38,-11 -57,-18 -2,-1 -5,-2 -7,-3l-16 -6 -3 -17c-8,-48 -15,-95 -19,-143 -2,-26 -4,-51 -6,-77 -3,-57 -3,-114 -1,-171 -15,29 -29,60 -42,90 -19,42 -36,85 -52,129l-4 11 -10 5c-36,19 -76,29 -117,29 -42,0 -85,-9 -122,-30l-10 -5 -4 -10c-16,-43 -33,-86 -52,-129 -13,-30 -27,-60 -42,-90 2,57 2,115 -1,171 -2,26 -3,51 -6,77 -4,48 -11,96 -19,143l-3 17 -16 6c-2,1 -5,2 -7,3 -19,8 -37,14 -57,18 -34,7 -71,9 -106,8 -54,0 -136,-12 -183,-38l-20 -11 5 -22c14,-58 23,-117 30,-176 -34,14 -70,23 -107,25 -85,6 -168,-18 -244,-53 -2,-1 -4,-2 -6,-3 -11,-6 -22,-13 -32,-20l-114 53 -15 -20c-25,-35 -67,-57 -107,-71l-16 -6c-1,0 -2,1 -3,1 -1,0 -2,0 -3,1 -3,1 -5,1 -8,2 -1,0 -3,0 -4,1 -3,1 -7,1 -10,1l-2 0 0 0c-1,0 -3,0 -4,0l-17 1c-2,0 -3,0 -5,0 -83,-2 -148,-56 -156,-137 -40,-33 -68,-86 -65,-138 1,-13 5,-25 11,-35 0,-58 31,-111 85,-127l0 -23c-2,-48 19,-95 53,-128 28,-41 72,-62 121,-67 4,0 8,0 12,0 6,0 12,1 18,2 12,2 23,6 33,13 -2,-5 -3,-10 -5,-15 -15,-50 -24,-102 -13,-153 19,-86 91,-137 167,-171 1,0 2,-1 3,-1 50,-20 103,-27 156,-21 143,17 267,131 362,233 1,0 2,0 4,0 109,12 254,29 324,124 5,2 10,3 15,5l7 3 5 5c11,12 22,28 31,42 14,22 27,44 39,67 33,59 63,121 89,183 4,9 7,17 11,26 3,-8 7,-16 10,-25 27,-62 57,-124 90,-183 12,-23 25,-45 39,-67 9,-14 19,-30 30,-42l5 -6 7 -3c120,-46 329,-42 444,18l21 11 -5 23c-32,137 -45,286 -45,427 0,140 12,289 44,425 0,0 0,0 0,-1l0 0 0 0c22,-97 47,-193 73,-289 26,-96 54,-192 83,-287l0 0 0 0c4,-11 11,-21 21,-27 9,-5 20,-8 30,-9 12,-2 25,-2 38,-3 19,-1 38,-1 57,-1 27,0 54,0 81,1 18,1 36,2 53,4 11,2 25,5 35,10 10,6 19,14 24,25l1 2 1 2c23,100 44,200 65,300 16,76 31,152 45,229 6,-11 13,-21 21,-31 10,-12 24,-22 40,-22 8,0 15,1 22,4 1,0 2,1 3,1 0,0 0,0 0,0 4,-2 11,-16 13,-20 11,-27 13,-61 13,-90 0,-42 0,-83 -2,-125 -1,-32 -2,-63 -3,-95 -1,-25 -2,-51 -3,-76 -1,-24 -1,-48 -1,-72 0,-11 2,-22 9,-31 9,-14 24,-19 40,-19 46,0 92,0 139,-1 48,-1 96,-1 144,-2 56,0 112,-1 168,-1 27,0 54,1 81,2 26,1 52,3 78,6 22,2 41,17 41,40 0,11 0,21 -1,32 -1,19 -2,37 -2,56 -1,37 -2,74 -3,111 0,15 -1,30 -1,44zm-3204 -478c0,11 0,21 0,32 3,-3 5,-7 8,-10 -2,-7 -5,-14 -7,-21zm4440 704c3,13 5,26 5,39 0,31 -7,61 -28,85 -18,19 -39,34 -64,43 -24,9 -50,14 -76,16 -23,1 -46,2 -69,2 -22,1 -44,1 -66,2 -23,0 -45,1 -68,1l-40 0c-17,0 -35,-1 -52,-2 -25,-2 -51,-9 -65,-31 -11,-17 -15,-39 -16,-59l0 -1 0 -1c0,-28 -1,-56 -3,-83 -2,-34 -4,-67 -7,-101 -3,-35 -6,-70 -9,-106 -3,-33 -6,-65 -8,-98 -2,-26 -4,-52 -6,-78 -1,-16 -2,-32 -2,-48 0,-17 1,-36 7,-52 5,-12 12,-24 22,-31 22,-17 52,-24 79,-28 40,-6 83,-7 124,-7 44,0 89,6 131,18 41,12 80,30 113,57 34,27 60,60 79,99 22,44 30,92 30,141 0,31 -4,62 -13,91l33 -67c-2,-28 -3,-57 -5,-85 -4,-63 -6,-127 -6,-190 0,-22 17,-34 36,-38 15,-4 33,-5 48,-6 26,-2 53,-2 79,-2l117 0c22,0 38,16 38,38 0,7 0,14 -1,20 0,5 -1,10 -1,15 0,33 1,65 2,98 1,-2 2,-5 3,-7 18,-44 34,-89 48,-135 3,-18 19,-30 38,-30 18,0 36,1 54,2 24,2 47,3 71,6 21,2 42,5 63,8 22,4 51,11 51,39 0,9 -2,18 -5,26l0 1 0 1c-9,28 -20,55 -31,82 -10,25 -21,49 -33,72 -12,23 -25,45 -39,66 -11,17 -23,34 -35,50 22,43 43,87 63,131 16,37 30,74 43,112 21,-88 43,-175 66,-262 26,-96 54,-192 83,-287l0 0 0 0c4,-11 11,-21 21,-27 9,-5 20,-8 30,-9 12,-2 25,-2 38,-3 19,-1 38,-1 57,-1 27,0 54,0 81,1 18,1 36,2 53,4 11,2 25,5 35,10 10,6 19,14 23,25l1 2 1 2c23,100 44,200 65,300 21,100 40,199 57,299l0 3 0 3c0,28 -19,49 -47,49 -33,0 -67,0 -100,-1 -34,0 -68,-3 -103,-7l-3 0 -3 -1c-7,-2 -14,-6 -20,-10 -11,-9 -16,-22 -18,-36 0,0 0,0 0,0 -7,3 -15,5 -22,5 -1,0 -2,0 -3,0 -1,3 -2,5 -3,8 -6,14 -18,22 -32,26 -12,4 -26,4 -39,5 -20,1 -40,1 -60,1 -24,0 -48,0 -73,-1 -15,0 -31,-1 -46,-3 -11,-2 -24,-5 -33,-12 -9,11 -24,17 -39,21 -20,5 -42,9 -63,11 -24,3 -48,5 -72,5 -20,1 -40,1 -60,1 -13,0 -25,-6 -32,-17l-3 -5 -2 -5c-6,-21 -12,-42 -19,-63 0,7 0,15 0,22 0,13 -6,25 -17,33 -8,6 -19,8 -29,10 -12,2 -25,2 -37,3 -19,1 -39,1 -58,1 -21,0 -42,0 -63,1 -16,0 -32,0 -48,-2 -14,-1 -26,-8 -34,-19 -8,-10 -11,-25 -13,-37 -1,-7 -2,-15 -3,-23l-51 -98zm2304 -154c-26,-42 -51,-84 -75,-126 -25,-45 -48,-92 -68,-140 -2,-5 -4,-10 -5,-14 -2,-7 -3,-15 -3,-23 0,-15 3,-29 15,-39 8,-7 19,-11 30,-13l2 0 2 0c13,-1 25,-2 38,-3 17,-1 34,-2 52,-3 19,-1 38,-2 56,-3 17,-1 35,-1 52,-1 9,0 19,1 27,4 16,5 27,17 31,33 5,19 10,37 17,55 7,-18 13,-36 20,-54 5,-16 16,-27 31,-33 16,-7 42,-7 60,-7 10,0 21,1 31,1 12,1 25,2 37,3 13,1 25,3 37,4 10,1 20,3 30,5l1 0 1 0c23,7 38,25 38,50 0,8 -2,16 -5,23 -2,5 -4,11 -6,16l0 1 0 1c-22,47 -45,94 -69,140 -22,41 -45,82 -68,122 1,21 2,41 2,62 0,23 1,47 1,70 0,25 0,51 -1,76 0,25 -1,51 -3,76 -2,25 -19,42 -43,45l-1 0 -1 0c-36,2 -73,4 -109,4 -19,0 -38,0 -57,-1 -18,0 -36,-1 -54,-3l-1 0 -1 0c-8,-1 -15,-4 -22,-8 -14,-9 -17,-25 -17,-40l0 0 0 0c1,-25 1,-49 2,-74 0,-25 1,-49 1,-74l0 -71c0,-20 -1,-41 -2,-61zm-154 92c7,6 14,13 20,21 18,23 24,51 24,79 0,31 -7,61 -28,85 -18,19 -39,34 -64,43 -24,9 -50,14 -76,16 -23,1 -46,2 -69,2 -22,1 -44,1 -66,2 -23,0 -45,1 -68,1l-40 0c-17,0 -35,-1 -52,-2 -25,-2 -51,-9 -65,-31 -11,-17 -15,-39 -16,-59l0 -1 0 -1c0,-28 -1,-56 -3,-83 -2,-34 -4,-67 -7,-101 -3,-35 -6,-70 -9,-106 -3,-33 -6,-65 -8,-98 -2,-26 -4,-52 -6,-78 -1,-16 -2,-32 -2,-48 0,-17 1,-36 7,-52 5,-12 12,-24 22,-31 22,-17 52,-24 79,-28 40,-6 83,-7 124,-7 44,0 89,6 131,18 41,12 80,30 113,57 34,27 60,60 79,99 22,44 30,92 30,141 0,35 -5,71 -17,104 -8,22 -20,42 -35,59zm-585 226c-30,17 -60,33 -91,47 -31,14 -63,27 -95,39 -7,3 -15,5 -23,5 -21,0 -37,-17 -48,-33 -11,-16 -21,-34 -29,-52 -9,-19 -17,-38 -23,-58 -6,-17 -12,-36 -12,-54 0,-22 16,-37 35,-46 28,-13 57,-26 85,-40 27,-13 53,-28 79,-44l1 -1 1 -1c5,-2 9,-4 14,-7 7,-3 15,-6 23,-6 23,0 40,19 51,37 12,18 23,37 33,57 10,19 19,39 27,59 5,12 13,32 13,44 0,16 -9,29 -21,38 -6,5 -13,10 -21,14z"/>
   <path class="fil0 str0" d="M1363 861c6,-14 13,-28 19,-42 -5,1 -10,1 -15,1 -8,0 -16,0 -23,0 6,13 13,27 19,41z"/>
   <path class="fil0 str0" d="M4872 1165c-4,9 -10,18 -15,26 2,2 4,4 5,7 5,6 9,13 13,20l-3 -53z"/>
   <path class="fil0 str0" d="M3645 1370c2,-10 5,-20 11,-29l1 -1c17,-27 36,-54 56,-79 3,-3 5,-6 8,-9 -22,-17 -40,-38 -55,-62 -6,-10 -12,-21 -17,-31 0,6 0,12 0,18 -1,42 -2,84 -3,126 0,22 0,45 -1,67z"/>
   <path class="fil2" d="M7574 776c11,3 16,10 16,21 0,3 -1,7 -3,12 -2,5 -4,11 -6,17 -22,48 -45,94 -68,138 -23,44 -47,87 -72,129 2,22 3,45 3,70 0,24 1,47 1,70 0,25 0,51 -1,76 0,25 -1,50 -3,75 -1,10 -7,16 -17,17 -35,2 -70,3 -107,3 -18,0 -37,0 -56,-1 -19,0 -36,-1 -52,-3 -5,-1 -8,-2 -10,-3 -2,-2 -3,-7 -3,-15 1,-25 1,-49 2,-74 0,-25 1,-50 1,-74 0,-23 0,-47 0,-71 0,-24 -1,-48 -2,-71 -27,-43 -53,-87 -78,-132 -25,-45 -48,-90 -67,-136 -2,-4 -3,-8 -4,-12 -1,-4 -2,-8 -2,-14 0,-8 2,-14 5,-17 3,-3 8,-5 16,-6 9,-1 22,-2 37,-3 16,-1 33,-2 51,-3 18,-1 37,-2 56,-3 19,-1 36,-1 51,-1 6,0 12,1 18,3 6,2 9,6 11,12 6,24 13,46 21,67 8,21 16,41 24,61 10,-21 19,-41 26,-60 7,-20 15,-41 24,-65 2,-6 6,-11 14,-14 8,-3 24,-5 48,-5 8,0 17,0 29,1 12,1 24,2 36,3 13,1 25,3 36,4 12,2 21,3 28,5z"/>
   <path class="fil3" d="M6783 1317c5,0 10,-1 15,-2 5,-1 11,-3 16,-6 5,-3 10,-7 13,-12 3,-5 5,-11 5,-19 0,-8 -2,-14 -6,-18 -4,-5 -9,-8 -14,-10 -6,-2 -12,-4 -20,-5 -7,-1 -14,-2 -20,-2 0,7 0,14 -1,21 0,7 -1,14 -1,21l0 32c1,1 5,1 12,1zm62 -186c0,-17 -4,-31 -13,-43 -8,-12 -21,-18 -39,-18 -2,0 -5,0 -8,0 -3,0 -6,0 -8,1 -2,18 -2,37 -3,59 0,21 -1,41 -1,59 17,0 33,-4 48,-12 15,-8 23,-23 24,-45zm188 -100c0,34 -5,65 -16,94 -10,29 -29,53 -56,73 18,8 34,20 45,36 12,15 18,36 18,61 0,28 -7,49 -21,64 -14,15 -31,27 -52,35 -21,8 -43,12 -67,14 -24,2 -47,2 -67,2 -21,1 -43,1 -66,2 -23,0 -46,1 -67,1 -13,0 -26,0 -40,0 -14,0 -30,-1 -49,-2 -21,-2 -35,-7 -42,-17 -7,-10 -10,-25 -11,-44 0,-25 -1,-53 -3,-85 -2,-32 -4,-66 -7,-101 -3,-35 -6,-71 -9,-106 -3,-35 -6,-68 -8,-98 -2,-30 -4,-56 -6,-78 -2,-22 -2,-37 -2,-45 0,-18 2,-32 5,-41 3,-9 7,-15 12,-18 14,-11 36,-18 66,-23 30,-5 70,-7 120,-7 43,0 84,6 123,17 39,11 73,28 103,52 30,23 53,53 71,89 18,36 26,78 26,127z"/>
   <path class="fil4" d="M6342 1199c7,0 16,8 26,24 11,16 21,34 31,54 10,20 19,39 26,57 7,18 11,29 11,33 0,5 -3,10 -10,15 -7,5 -12,9 -16,10 -30,18 -60,33 -90,47 -30,13 -61,26 -93,39 -6,2 -10,3 -13,3 -6,0 -14,-7 -23,-20 -9,-13 -18,-29 -26,-48 -8,-18 -16,-37 -22,-55 -7,-18 -10,-33 -10,-44 0,-7 6,-13 17,-18 28,-13 57,-26 85,-40 28,-14 56,-29 82,-46 3,-2 7,-3 13,-6 5,-2 9,-3 12,-3z"/>
   <path class="fil5" d="M5819 1206c5,0 11,2 20,6 -4,-24 -8,-46 -14,-66 -5,-20 -12,-45 -21,-75 -8,25 -15,50 -21,77 -6,26 -12,54 -18,81 18,-11 29,-17 35,-20 6,-2 12,-3 19,-3zm133 -413c23,101 45,201 65,300 20,99 39,198 57,299 0,12 -6,18 -17,18 -35,0 -68,0 -100,-1 -32,0 -65,-2 -100,-6 -5,-2 -8,-3 -12,-6 -3,-2 -5,-8 -7,-17 -2,-7 -2,-13 -3,-18 0,-5 -1,-13 -2,-23 -9,6 -19,11 -29,16 -10,4 -16,6 -18,6 -4,0 -8,-1 -14,-4 -5,-3 -9,-6 -12,-10l-5 24c-1,7 -2,12 -3,16 -2,4 -6,7 -12,9 -7,2 -17,3 -31,3 -14,0 -34,1 -59,1 -30,0 -54,0 -72,-1 -18,0 -32,-1 -42,-3 -10,-2 -17,-4 -20,-6 -3,-3 -5,-6 -5,-11 0,-2 0,-3 0,-6 0,-2 0,-5 1,-9 22,-97 46,-193 72,-288 26,-96 54,-191 83,-286 2,-5 4,-8 8,-10 4,-2 10,-4 18,-5 8,-1 20,-2 35,-2 15,0 33,-1 56,-1 32,0 59,0 80,1 21,1 38,2 49,4 12,2 20,4 25,7 5,3 8,6 10,10z"/>
   <path class="fil6" d="M5496 806c-10,29 -20,56 -30,81 -10,25 -21,48 -32,70 -12,22 -24,43 -37,64 -13,21 -29,42 -45,63 25,48 49,96 71,146 22,50 41,103 58,160 0,7 -8,12 -25,17 -16,4 -36,8 -59,10 -23,3 -46,4 -70,5 -24,1 -43,1 -59,1 -3,0 -6,-2 -8,-5 -10,-36 -22,-72 -35,-108 -13,-36 -28,-71 -44,-104 -1,12 -1,24 -1,35 0,11 0,23 0,35 0,18 0,37 1,55 1,18 1,36 1,55 0,4 -1,7 -4,9 -3,2 -8,3 -16,5 -8,1 -19,2 -33,2 -15,0 -34,1 -58,1 -25,0 -46,0 -63,1 -18,0 -33,0 -45,-2 -5,0 -8,-2 -12,-6 -3,-4 -6,-12 -7,-24 -2,-12 -3,-29 -5,-50 -1,-21 -3,-50 -5,-85 -6,-105 -11,-194 -16,-267 -4,-73 -6,-136 -6,-189 0,-4 4,-7 13,-9 9,-2 23,-4 43,-5 20,-1 45,-2 77,-2 32,0 71,0 117,0 5,0 8,3 8,8 0,6 0,12 -1,18 0,6 -1,12 -1,17 0,39 1,78 2,117 2,39 4,77 7,114 18,-41 35,-85 54,-129 18,-45 35,-91 50,-140 0,-4 3,-6 8,-6 12,0 29,1 52,2 23,2 47,3 70,6 23,2 44,5 61,8 17,3 26,6 26,9 0,4 -1,10 -3,17z"/>
   <path class="fil7" d="M4593 1317c5,0 10,-1 15,-2 5,-1 11,-3 16,-6 5,-3 10,-7 13,-12 3,-5 5,-11 5,-19 0,-8 -2,-14 -6,-18 -4,-5 -9,-8 -14,-10 -6,-2 -12,-4 -20,-5 -7,-1 -14,-2 -20,-2 0,7 0,14 -1,21 0,7 -1,14 -1,21l0 32c1,1 5,1 11,1zm62 -186c0,-17 -4,-31 -13,-43 -8,-12 -21,-18 -39,-18 -2,0 -5,0 -8,0 -3,0 -6,0 -8,1 -2,18 -2,37 -3,59 0,21 -1,41 -1,59 17,0 33,-4 48,-12 15,-8 23,-23 24,-45zm188 -100c0,34 -5,65 -16,94 -10,29 -29,53 -56,73 18,8 34,20 45,36 12,15 18,36 18,61 0,28 -7,49 -21,64 -14,15 -31,27 -52,35 -21,8 -43,12 -67,14 -24,2 -47,2 -67,2 -21,1 -43,1 -66,2 -23,0 -46,1 -67,1 -13,0 -26,0 -40,0 -14,0 -30,-1 -49,-2 -21,-2 -35,-7 -42,-17 -7,-10 -10,-25 -11,-44 0,-25 -1,-53 -3,-85 -2,-32 -4,-66 -7,-101 -3,-35 -6,-71 -9,-106 -3,-35 -6,-68 -8,-98 -2,-30 -4,-56 -6,-78 -2,-22 -2,-37 -2,-45 0,-18 2,-32 5,-41 3,-9 7,-15 12,-18 14,-11 36,-18 66,-23 30,-5 70,-7 120,-7 43,0 84,6 123,17 39,11 73,28 103,52 30,23 53,53 71,89 18,36 26,78 26,127z"/>
   <path class="fil8" d="M3868 1120c0,27 9,49 27,65 18,17 42,26 73,28l0 -150c-7,-2 -15,-3 -24,-3 -20,0 -38,5 -53,15 -15,10 -23,25 -23,45zm-189 -102c0,-35 8,-69 25,-101 17,-32 41,-61 72,-85 31,-25 70,-44 115,-59 45,-15 97,-22 154,-22 28,0 54,1 78,3 25,2 46,5 64,8 18,3 33,8 44,13 11,5 16,11 16,17 0,5 0,14 -1,25 0,11 -1,24 -2,37 -1,14 -1,28 -2,43 0,15 -1,28 -1,39 -2,82 -4,152 -5,211 -1,58 -3,106 -5,144 -2,38 -5,65 -8,83 -3,18 -8,27 -14,28 -15,2 -32,2 -52,2 -20,0 -48,0 -83,0 -13,0 -26,0 -39,-1 -13,0 -25,-1 -35,-2 -10,-1 -19,-3 -25,-5 -7,-2 -10,-5 -10,-9l0 -61c-38,33 -68,69 -90,108 -4,6 -9,9 -15,9 -1,0 -10,-2 -26,-7 -17,-5 -35,-10 -56,-16 -20,-6 -39,-13 -55,-20 -16,-7 -25,-13 -25,-18 0,-3 1,-7 3,-10 17,-27 34,-51 52,-74 18,-22 35,-42 52,-60 -41,-15 -72,-41 -96,-78 -23,-37 -35,-84 -35,-142z"/>
   <path class="fil9" d="M3601 785c0,8 0,18 -1,30 -1,12 -2,30 -2,57 -1,26 -2,63 -3,111 -1,48 -3,112 -4,192 -2,48 -2,91 -3,127 0,36 -1,65 -1,86 0,8 -2,13 -6,14 -4,1 -8,2 -12,2 -12,1 -24,1 -36,1 -12,0 -24,0 -37,0 -22,0 -46,-1 -70,-2 -25,-1 -46,-2 -63,-4 -8,-1 -14,-3 -16,-7 -2,-4 -3,-11 -3,-22 -4,-51 -7,-105 -10,-164 -3,-59 -6,-117 -8,-175 -8,-1 -15,-1 -23,-2 -8,0 -15,-1 -23,-1 -8,0 -15,0 -23,1 -8,0 -15,1 -23,2 -5,70 -11,128 -20,173 -9,46 -19,78 -29,98 -22,40 -53,70 -91,90 -38,20 -81,30 -127,30 -46,0 -80,-4 -101,-12 -21,-8 -32,-15 -32,-20 0,-7 2,-16 6,-27 4,-11 9,-22 14,-32 6,-10 12,-19 18,-26 6,-7 12,-11 17,-11 4,0 8,1 13,2 5,2 9,2 13,2 17,0 30,-13 41,-39 10,-26 16,-60 16,-101 0,-48 -1,-90 -2,-126 -1,-36 -2,-67 -3,-95 -1,-28 -2,-53 -3,-76 -1,-23 -1,-47 -1,-71 0,-6 1,-11 3,-14 2,-3 7,-5 15,-5 44,0 90,0 139,-1 42,-1 90,-1 144,-2 54,0 110,-1 168,-1 27,0 53,1 79,2 26,1 51,3 76,6 9,1 14,4 14,10z"/>
   <path class="fil10" d="M2557 1206c5,0 11,2 20,6 -4,-24 -8,-46 -14,-66 -5,-20 -12,-45 -21,-75 -8,25 -15,50 -21,77 -6,26 -12,54 -18,81 18,-11 29,-17 35,-20 6,-2 12,-3 19,-3zm133 -413c23,101 45,201 65,300 20,99 39,198 57,299 0,12 -6,18 -17,18 -35,0 -68,0 -100,-1 -32,0 -65,-2 -100,-6 -5,-2 -8,-3 -12,-6 -3,-2 -5,-8 -7,-17 -2,-7 -2,-13 -3,-18 0,-5 -1,-13 -2,-23 -9,6 -19,11 -29,16 -10,4 -16,6 -18,6 -4,0 -8,-1 -14,-4 -5,-3 -9,-6 -12,-10l-5 24c-1,7 -2,12 -3,16 -2,4 -6,7 -12,9 -7,2 -17,3 -31,3 -14,0 -34,1 -59,1 -30,0 -54,0 -72,-1 -18,0 -32,-1 -42,-3 -10,-2 -17,-4 -20,-6 -3,-3 -5,-6 -5,-11 0,-2 0,-3 0,-6 0,-2 0,-5 1,-9 22,-97 46,-193 73,-288 26,-96 54,-191 83,-286 2,-5 4,-8 8,-10 4,-2 10,-4 18,-5 8,-1 20,-2 35,-2 15,0 33,-1 56,-1 32,0 59,0 80,1 21,1 38,2 49,4 12,2 20,4 25,7 5,3 8,6 10,10z"/>
   <path class="fil11" d="M973 1367c32,18 101,34 169,34 100,1 126,-15 159,-27 15,-86 21,-143 25,-217 5,-85 3,-181 -7,-293 49,63 119,219 160,332 32,18 69,26 107,26 36,0 71,-10 103,-26 41,-112 111,-269 160,-332 -10,112 -12,208 -7,293 4,74 10,130 25,217 33,12 59,29 159,27 67,0 137,-16 169,-34 -62,-255 -60,-613 0,-868 -107,-56 -307,-59 -419,-16 -32,36 -134,221 -192,381 -56,-160 -159,-345 -192,-381 -111,-42 -311,-40 -418,16 60,255 60,613 0,868z"/>
   <g>
    <path class="fil12" d="M387 728c2,-11 5,-22 8,-32 14,-43 37,-83 66,-117 -16,-50 -35,-98 -50,-148 -13,-44 -23,-92 -13,-138 17,-76 83,-120 150,-150 1,0 1,-1 2,-1 45,-18 93,-25 141,-19 138,16 261,134 353,234 4,-1 9,-1 13,0 140,15 335,38 338,221 0,8 -2,16 -5,23 12,28 14,59 10,89 7,3 14,5 21,6 20,4 34,21 36,41 2,20 -9,39 -28,47 -19,8 -39,13 -59,14 -38,2 -75,-9 -109,-26 -69,179 -186,392 -397,408 -79,6 -157,-17 -229,-50 -1,-1 -3,-1 -4,-2 -72,-42 -144,-97 -192,-167 -2,8 -5,16 -9,23 -6,12 -14,22 -23,31 -1,1 -3,3 -4,4 -4,3 -7,7 -11,9 -2,1 -3,3 -4,3 -1,1 -2,2 -4,3 -1,1 -2,2 -3,2 -2,1 -4,2 -6,4 -1,1 -2,1 -3,2 -1,1 -2,1 -3,2 -1,1 -3,2 -4,2 -4,2 -8,4 -12,5 -2,1 -5,2 -7,3 -1,0 -2,1 -3,1 -2,1 -3,1 -5,2 -1,0 -2,1 -3,1 -2,1 -5,1 -7,2 -1,0 -2,1 -3,1 -1,0 -3,1 -4,1 -1,0 -2,0 -3,1 -3,1 -5,1 -7,1 -1,0 -2,0 -3,1 -3,0 -6,1 -9,1 -1,0 -1,0 -2,0 -1,0 -2,0 -3,0l-17 1c-1,0 -2,0 -3,0 -74,-2 -127,-51 -128,-123 -38,-26 -67,-74 -64,-120 1,-11 5,-20 11,-28 0,-1 0,-2 0,-3l0 -3c-1,-54 29,-103 85,-105l-1 -49c-2,-41 16,-80 46,-107 23,-35 59,-53 100,-56 2,0 5,0 7,0 5,0 11,1 16,2 23,3 40,23 40,46 0,70 -2,140 -3,210zm93 421c-25,-35 -65,-62 -121,-82 45,-19 73,-45 83,-76 41,46 83,89 131,116 -31,14 -62,28 -93,43z"/>
    <path class="fil1" d="M121 804c0,-1 0,-1 0,-2 0,0 0,-1 0,-1 0,-3 -1,-7 -1,-11l0 -3c-1,-43 22,-83 69,-81 1,0 2,0 3,0l10 2c0,0 0,0 1,0 1,0 2,0 3,1l-1 -76c-2,-36 14,-68 41,-92 18,-30 49,-45 84,-48 1,0 2,0 4,0 5,0 10,1 15,2 12,2 20,11 20,23 0,87 -4,175 -4,262l0 23c0,3 -1,6 -2,9 18,17 33,35 44,55 18,33 23,70 5,104 -5,10 -12,18 -19,26 -1,1 -2,2 -3,3 -3,3 -6,6 -9,8 -1,1 -2,2 -4,3 -1,1 -2,2 -3,2 -1,1 -2,2 -3,2 -2,1 -3,2 -5,3 -1,1 -2,1 -3,1 -1,1 -2,1 -3,2 -1,1 -3,1 -4,2 -3,2 -7,3 -10,5 -2,1 -4,2 -6,2 -1,0 -1,1 -2,1 -1,0 -3,1 -4,1 -1,0 -2,1 -2,1 -2,1 -4,1 -6,2 -1,0 -2,0 -3,1 -1,0 -3,1 -4,1 -1,0 -2,0 -2,0 -2,1 -5,1 -7,1 -1,0 -2,0 -2,0 -3,0 -6,1 -8,1 0,0 -1,0 -1,0 0,0 -1,0 -1,0l-17 1c-1,0 -1,0 -1,0 -66,-2 -110,-45 -105,-112 -37,-19 -67,-65 -65,-106 1,-9 5,-16 13,-19zm107 85c3,3 5,7 5,12 1,8 -1,16 -7,21 3,2 6,4 9,6 11,7 13,8 26,9 1,0 2,0 3,0 2,0 5,0 7,0 2,0 3,-1 4,-2 7,-9 -7,-25 -13,-30 -2,-1 -3,-3 -4,-5 -4,-5 -15,-13 -25,-20 -1,3 -2,7 -5,9zm1022 -150c-64,173 -176,402 -387,418 -75,6 -150,-17 -217,-48 -1,0 -1,-1 -2,-1 -82,-48 -165,-114 -208,-200 -33,-65 -40,-135 -18,-204 14,-45 40,-86 72,-121 -3,-3 -5,-6 -6,-10 -55,-175 -145,-310 75,-408 0,0 1,0 1,0 42,-17 85,-23 130,-18 134,16 256,136 350,238 5,-4 11,-5 17,-5 127,14 314,32 317,198 0,8 -4,15 -10,20 18,28 19,62 13,95 -1,4 -2,7 -4,10 15,7 30,12 45,16 10,2 17,10 18,21 1,10 -5,20 -14,24 -16,7 -33,11 -51,12 -42,2 -83,-14 -120,-36z"/>
    <path class="fil13 str1" d="M1054 403c139,15 294,34 296,175 -55,-31 -101,-48 -182,-50 -24,-39 -73,-82 -114,-126zm-486 -217c330,-131 579,496 844,555 -229,99 -481,-561 -905,-175 -58,-185 -135,-292 62,-380zm610 368c96,10 196,17 175,134 -64,-19 -121,-70 -175,-134zm-369 -74c172,14 281,193 418,251 -104,283 -229,393 -367,404 -66,5 -135,-13 -205,-46 -408,-238 -189,-556 49,-597 38,-11 72,-14 105,-11zm-470 325l0 0zm4 -286c0,77 -3,181 -4,262l0 23 0 0c-27,-27 -59,-55 -100,-59 -3,0 -7,0 -10,0l0 -12 -2 -101c-2,-33 15,-58 36,-76 12,-22 35,-37 68,-40 4,0 9,1 13,1zm-75 254c145,91 147,167 105,210 -1,1 -1,1 -2,2 -2,2 -5,5 -8,7 -1,1 -2,1 -3,2 -1,1 -2,1 -3,2 -1,1 -2,1 -2,2 -1,1 -3,2 -4,2 -1,0 -2,1 -2,1 -1,0 -2,1 -2,1 -1,1 -2,1 -3,2 -3,1 -6,3 -9,4 -2,1 -4,1 -5,2 -1,0 -1,0 -2,1 -1,0 -2,1 -3,1 -1,0 -1,0 -2,1 -2,1 -4,1 -6,2 -1,0 -1,0 -2,1 -1,0 -2,1 -3,1 -1,0 -1,0 -2,0 -2,0 -4,1 -6,1 -1,0 -1,0 -2,0 -2,0 -5,1 -7,1 0,0 0,0 0,0l-17 1c-46,-1 -87,-28 -82,-88 11,7 19,13 25,17 14,9 21,12 39,13 5,1 10,0 15,0 30,-6 34,-47 0,-73 -8,-11 -31,-24 -48,-40 -11,-11 -21,-22 -22,-36 -3,-8 -2,-19 2,-29 0,-1 1,-2 1,-2 0,-1 1,-1 1,-2 4,-7 10,-13 18,-15 6,-2 14,-2 22,1 6,2 12,5 19,10zm-77 43c3,13 12,32 15,47 0,1 0,2 1,3 1,3 1,6 1,8 -14,-1 -26,-7 -35,-15 -17,-14 -27,-37 -30,-60 0,0 0,-1 0,-1 0,-3 -1,-6 -1,-8l0 -3c-1,-31 13,-59 45,-57l10 2c5,1 9,2 12,4 1,0 1,1 2,1 13,8 -10,19 -18,46 -2,8 -3,17 -2,27l1 6c0,0 0,1 0,1zm3 97l0 0 0 0zm-64 -88c12,33 33,60 74,77l5 2c-5,4 -10,7 -15,9 -34,-10 -66,-54 -64,-88zm34 87l0 0z"/>
    <g>
     <path class="fil13" d="M705 490c237,-69 359,171 523,239 -153,418 -354,460 -572,358 -408,-238 -189,-556 49,-597z"/>
     <path class="fil13" d="M810 479c172,14 281,193 418,251 -104,283 -229,393 -367,404 -52,-4 -106,-20 -161,-46 -408,-238 -189,-556 49,-597 21,-6 41,-10 60,-11z"/>
     <path class="fil14" d="M705 490c237,-69 359,171 523,239 -153,418 -354,460 -572,358 -408,-238 -189,-556 49,-597z"/>
     <path class="fil15" d="M810 479c172,14 281,193 418,251 -104,283 -229,393 -367,404 -52,-4 -106,-20 -161,-46 -408,-238 -189,-556 49,-597 21,-6 41,-10 60,-11z"/>
     <path class="fil16" d="M1412 740c-229,99 -481,-561 -905,-175 -58,-185 -135,-292 62,-380 330,-131 579,496 844,555z"/>
     <path class="fil17" d="M1172 613c-190,-195 -375,-482 -591,-398 -40,18 -92,46 -103,92 -8,31 1,69 10,99 10,35 23,69 35,103 98,-77 211,-120 338,-88 72,19 137,58 197,101 39,29 77,60 115,91z"/>
     <path class="fil13" d="M1172 613c-190,-195 -375,-482 -591,-398 -40,18 -92,46 -103,92 -8,31 1,69 10,99 10,35 23,69 35,103 98,-77 211,-120 338,-88 72,19 137,58 197,101 39,29 77,60 115,91z"/>
     <ellipse class="fil1" transform="matrix(0.655435 2.58782E-017 -0.0934315 0.46618 672.852 671.248)" rx="136" ry="271"/>
     <ellipse class="fil18" transform="matrix(0.380466 -0.0292291 -0.054235 0.223608 680.971 734.899)" rx="136" ry="271"/>
     <ellipse class="fil1" transform="matrix(0.148198 -0.0496647 0.000823426 0.094242 688.075 707.712)" rx="136" ry="271"/>
     <ellipse class="fil1" transform="matrix(0.632632 -0 -0.0901809 0.449961 934.192 718.814)" rx="136" ry="271"/>
     <ellipse class="fil18" transform="matrix(0.367229 -0.0282122 -0.0523481 0.215828 942.029 780.251)" rx="136" ry="271"/>
     <ellipse class="fil1" transform="matrix(0.143042 -0.0479369 0.000794778 0.0909632 948.886 754.01)" rx="136" ry="271"/>
     <path class="fil18" d="M967 907c-23,162 -276,178 -310,38 90,97 221,97 310,-38z"/>
     <ellipse class="fil18" cx="778" cy="892" rx="88" ry="51"/>
     <path class="fil15" d="M1354 687c21,-117 -79,-124 -175,-134 54,65 111,116 175,134z"/>
     <path class="fil16" d="M1168 528c-24,-39 -73,-82 -114,-126 139,15 294,34 296,175 -55,-31 -101,-48 -182,-50z"/>
     <path class="fil14" d="M197 930c11,7 19,13 25,17 3,45 35,67 74,71 -4,0 -9,1 -13,1l0 0 0 0 0 0 0 0 0 0 0 0 0 0 -3 0 0 0 0 0 0 0c-46,-1 -87,-28 -82,-88zm79 29c30,-6 34,-47 0,-73 -8,-11 -31,-24 -48,-40 -4,-11 -9,-23 -10,-31 -5,-24 3,-41 11,-53 -8,2 -14,8 -18,15 7,-12 21,-21 40,-14 -18,8 -25,33 -20,47 3,34 56,58 70,76 39,30 27,79 -15,74 -4,0 -7,0 -11,0zm-67 -178c0,-1 1,-2 1,-2 0,1 -1,2 -1,2zm166 202c-1,1 -1,1 -2,2 1,-1 1,-1 2,-2zm-10 9c-1,1 -2,1 -3,2 1,-1 2,-1 3,-2zm-5 4c-1,1 -2,1 -2,2 1,-1 2,-1 2,-2zm-6 4c-1,0 -2,1 -2,1 1,0 2,-1 2,-1zm-5 3c-1,1 -2,1 -3,2m-9 4c-2,1 -4,1 -5,2 2,-1 4,-1 5,-2zm-7 3c-1,0 -2,1 -3,1 1,0 2,-1 3,-1zm-5 2c-2,1 -4,1 -6,2 2,-1 4,-1 6,-2zm-8 2c-1,0 -2,1 -3,1 1,0 2,-1 3,-1zm-5 1c-2,0 -4,1 -6,1 2,0 4,-1 6,-1zm-8 1c-2,0 -5,1 -7,1 2,0 5,-1 7,-1zm-179 -223c-27,18 -19,56 1,84l0 0 0 0m3 4c3,4 7,8 11,12l0 0 0 0 0 0 2 1 0 0m16 11l0 0 0 0 0 0 0 0 0 0 0 0 0 0 0 0 1 1 0 0 0 0 0 0 0 0 0 0 0 0 0 0 0 0 0 0 0 0 0 0 0 0 0 0 0 0 0 0 0 0 0 0 0 0 0 0 1 1 0 0 0 0 0 0 0 0 0 0 0 0 0 0 0 0 0 0 0 0 1 1 0 0 0 0m1 0l0 0 0 0m4 1l0 0 0 0 0 0m6 1l0 0 0 0 0 0 0 0m2 0l0 0 0 0 0 0 -1 0m2 0l0 0 0 0 1 0m1 0l0 0 0 0 2 0 0 0 0 0 0 0m2 0l0 0 0 0 0 0m0 0c1,0 1,0 2,0 -1,0 -1,0 -2,0zm2 0l0 0 0 0 0 0m0 0l0 0 0 0 2 0 0 0 0 0 0 0m1 0l0 0 0 0 0 0 1 0 0 0 0 0 0 0c-34,-10 -66,-54 -64,-88 -3,-10 -6,-20 -8,-31m70 120l0 0 1 0m15 -9c-2,-1 -3,-1 -5,-2 2,1 3,1 5,2zm-23 -174c-31,-2 -45,26 -45,57m0 3c0,3 0,6 1,10l0 -1c2,-1 3,-3 5,-4 4,24 12,46 25,65 10,8 22,14 35,15 0,-3 0,-5 -1,-8 -48,-29 -56,-120 -11,-134 -3,-1 -6,-1 -10,-2m20 133c-4,-15 -13,-35 -15,-47 3,13 12,32 15,47zm-16 -48c0,-2 -1,-4 -1,-6 0,2 1,4 1,6zm1 -33c8,-27 30,-38 18,-46 13,8 -10,19 -18,46zm18 -46c-1,0 -1,-1 -2,-1 1,0 1,1 2,1zm129 44c0,8 0,16 0,23l0 0 0 0 0 0c-27,-27 -59,-56 -101,-59 2,-5 0,-9 -11,-12l-2 -101c-2,-33 15,-58 36,-76m-11 57c1,44 1,87 2,131 34,-1 62,16 86,36"/>
     <path class="fil15" d="M222 947c14,9 21,12 39,13 5,1 10,0 15,0 3,0 7,0 11,0 42,5 54,-44 15,-74 -14,-19 -67,-42 -70,-76 -5,-14 1,-39 20,-47 6,2 12,5 19,10 213,133 118,236 26,245 -38,-4 -71,-26 -74,-71zm6 -101c-11,-11 -21,-22 -22,-36 -5,-14 2,-42 23,-48 -8,12 -16,29 -11,53 2,8 6,20 10,31zm54 172c-1,0 -2,0 -3,0 1,0 2,0 3,0zm-157 -141c1,2 2,3 3,4 -1,-1 -2,-3 -3,-4zm14 16c6,5 12,10 19,14 -6,-4 -13,-8 -19,-14zm19 14c1,0 2,1 2,1 -1,0 -2,-1 -2,-1zm3 1c1,0 2,1 2,1 -1,0 -2,-1 -2,-1zm3 1c7,3 15,5 23,5 -7,0 -15,-1 -23,-5zm23 5c1,0 2,0 2,0 -1,0 -2,0 -2,0zm3 0c1,0 2,0 2,0 -1,0 -2,0 -2,0zm3 0c1,0 2,0 2,-1 -1,0 -2,0 -2,1zm3 -1c1,0 1,0 2,-1 -1,0 -1,0 -2,1zm2 -1c5,-2 10,-5 15,-9 -44,-17 -66,-45 -78,-79 -2,34 30,78 64,88zm-52 -126c0,1 0,2 0,3 0,-1 0,-2 0,-3zm1 11c3,23 13,46 30,61 -14,-19 -21,-41 -25,-65 -2,1 -4,3 -5,4zm65 68c-3,-16 -14,-38 -16,-51 -11,-59 52,-73 5,-83l0 0c-45,14 -37,105 11,134zm136 -347c0,77 -3,181 -4,262 -24,-20 -52,-37 -86,-36 -1,-44 -1,-87 -2,-131 -3,-53 22,-92 79,-97 -2,0 -5,0 -7,0 6,0 13,1 20,2zm-4 286l0 0 0 0 0 0zm-101 -59c-3,0 -7,0 -10,0l0 -12c11,3 13,7 11,12zm16 -209c2,-2 5,-4 7,-5 -3,2 -5,3 -7,5zm7 -5c3,-2 5,-3 8,-5 -3,1 -6,3 -8,5zm21 -9c2,0 3,-1 5,-1 -2,0 -3,1 -5,1zm8 -2c10,-2 21,-3 33,-3 -12,0 -23,0 -33,3z"/>
     <path class="fil18" d="M592 553c64,-93 225,-26 203,71 -26,-88 -107,-128 -203,-71z"/>
     <path class="fil18" d="M873 599c53,-77 188,-21 169,59 -22,-73 -89,-106 -169,-59z"/>
    </g>
   </g>
   <path class="fil19" d="M2608 617c0,5 -2,10 -6,13 -4,3 -8,5 -14,5 -11,0 -17,-7 -19,-20l-12 -79 0 0 -26 83c-3,11 -10,16 -20,16 -10,0 -17,-5 -21,-16l-26 -83 -1 0 -11 74c-2,17 -10,25 -21,25 -5,0 -9,-2 -13,-5 -4,-3 -6,-7 -6,-12 0,-3 1,-8 2,-16l19 -108c2,-10 4,-16 7,-20 4,-5 11,-8 19,-8 8,0 14,3 18,9 4,6 8,14 11,24l21 65 1 0 23 -71c2,-8 6,-14 11,-20 4,-5 9,-7 17,-7 7,0 12,2 17,6 5,4 8,10 9,16l20 115c1,5 1,10 1,14zm179 1c0,5 -2,9 -5,12 -3,3 -8,4 -13,4 -10,0 -16,-6 -20,-18l-5 -16 -62 0 -5 16c-4,12 -10,18 -20,18 -12,0 -18,-5 -18,-16 0,-5 1,-11 4,-19l40 -108c7,-19 17,-28 29,-28 13,0 23,9 29,26l42 112c2,6 3,12 3,17zm-54 -52l-19 -61 -1 0 -20 61 40 0zm191 -77c0,5 -1,9 -4,12 -3,3 -7,5 -11,5l-52 0 0 108c0,13 -6,20 -19,20 -13,0 -19,-7 -19,-20l0 -121c0,-1 0,-1 0,-2 0,-1 0,-2 0,-2 0,-4 1,-7 4,-11 3,-5 8,-8 16,-8 1,0 2,0 3,0 1,0 2,0 3,0 0,0 0,0 1,0 0,0 1,0 1,0l68 0c0,0 2,2 6,7 3,4 4,8 4,13zm176 129c0,5 -2,9 -5,12 -3,3 -8,4 -13,4 -10,0 -16,-6 -20,-18l-5 -16 -62 0 -5 16c-4,12 -10,18 -20,18 -12,0 -18,-5 -18,-16 0,-5 1,-11 4,-19l40 -108c7,-19 17,-28 29,-28 13,0 23,9 29,26l42 112c2,6 3,12 3,17zm-54 -52l-19 -61 -1 0 -20 61 40 0zm203 19c0,15 -6,28 -17,38 -11,10 -25,15 -40,15 -14,0 -27,-4 -39,-11 -14,-9 -20,-20 -20,-33 0,-5 2,-9 5,-12 3,-3 7,-5 12,-5 7,0 13,3 17,9 6,10 12,15 20,16 0,0 1,0 2,0 1,0 2,0 3,0 6,0 10,-2 14,-6 4,-4 5,-9 5,-14 0,-11 -6,-17 -17,-18 -2,0 -6,0 -10,-1 -4,-1 -7,-3 -9,-6 -2,-3 -4,-7 -4,-11 0,-4 2,-8 6,-11 2,-2 6,-3 12,-5 6,-2 9,-4 12,-5 4,-3 5,-6 5,-11 0,-8 -6,-12 -17,-12 -4,0 -9,3 -17,10 -7,7 -13,10 -18,10 -4,0 -8,-2 -11,-5 -3,-4 -4,-8 -4,-12 0,-7 3,-13 10,-21 11,-12 26,-19 45,-19 13,0 25,4 34,13 10,9 15,20 15,33 0,14 -6,25 -19,33 18,7 27,21 27,41zm178 31c0,13 -7,20 -20,20 -6,0 -10,-2 -13,-5 -3,-4 -5,-8 -5,-14l0 -79 0 0 -70 87c-2,3 -6,6 -9,9 -3,2 -6,3 -10,3 -5,0 -9,-2 -13,-5 -4,-3 -5,-8 -5,-13l0 -130c0,-15 6,-22 18,-22 6,0 11,2 14,5 4,3 5,8 5,14l0 80 70 -88c6,-8 13,-12 19,-12 6,0 11,2 14,6 3,4 5,9 5,15l0 129zm178 0c0,13 -7,20 -20,20 -12,0 -18,-7 -18,-20l0 -50 -71 0 0 49c0,14 -6,20 -19,20 -13,0 -19,-7 -19,-20l0 -129c0,-13 6,-20 19,-20 13,0 19,7 19,20l0 45 71 0 0 -45c0,-13 6,-20 19,-20 13,0 19,7 19,20l0 129zm309 -1c0,13 -7,19 -22,19l-13 0c-1,0 -1,0 -3,0 -1,0 -2,0 -3,0 -1,0 -2,0 -3,0 -1,0 -2,0 -3,0l-93 0c-2,1 -4,1 -7,1 -1,0 -2,0 -4,-1 -2,0 -3,-1 -3,-1 -9,0 -14,0 -15,0 -6,-1 -11,-2 -14,-6 -4,-4 -5,-8 -5,-14 0,-12 7,-19 22,-19l6 0 45 -113c4,-12 11,-17 20,-17 9,0 15,6 20,17l46 114 5 0c15,0 23,6 23,19zm-69 -19l-24 -64 -24 64 48 0zm198 19c0,12 -6,18 -19,18l-58 0c-6,0 -11,-2 -14,-5 -4,-3 -5,-8 -5,-14l0 -129c0,-5 2,-10 5,-14 3,-4 8,-5 13,-5l60 0c12,0 18,6 18,18 0,11 -6,17 -18,17l-40 0 0 30 37 0c5,0 10,2 13,5 3,3 5,8 5,13 0,5 -2,9 -5,13 -3,3 -8,5 -13,5l-37 0 0 31 40 0c13,0 19,6 19,17zm151 -131c0,11 -7,17 -20,17l-21 0 0 113c0,14 -6,20 -19,20 -13,0 -19,-7 -19,-20l0 -113 -21 0c-13,0 -20,-6 -20,-17 0,-12 7,-18 20,-18l80 0c13,0 20,6 20,18zm166 125c0,9 -5,15 -14,20 -12,6 -25,8 -39,8 -25,0 -45,-8 -60,-25 -14,-16 -22,-37 -22,-62 0,-25 8,-46 23,-62 15,-16 35,-24 60,-24 12,0 23,2 31,5 12,5 18,12 18,22 0,3 0,5 -1,7 -3,7 -8,11 -15,11 -3,0 -8,-1 -15,-4 -7,-3 -13,-4 -17,-4 -21,0 -34,10 -41,31 -2,7 -3,14 -3,20 0,13 3,24 10,34 7,10 18,15 32,15 8,0 16,-1 23,-4 4,-2 8,-3 11,-3 5,0 9,2 12,5 3,3 5,7 5,12zm151 -125c0,11 -7,17 -20,17l-21 0 0 113c0,14 -6,20 -19,20 -13,0 -19,-7 -19,-20l0 -113 -21 0c-13,0 -20,-6 -20,-17 0,-12 7,-18 20,-18l80 0c13,0 20,6 20,18zm155 99c0,16 -6,29 -17,38 -10,8 -24,12 -40,12l-48 0c-6,0 -10,-2 -14,-5 -3,-4 -5,-8 -5,-14l0 -129c0,-12 6,-19 19,-19l45 0c13,0 24,4 32,12 9,8 13,18 13,31 0,14 -7,25 -20,32 10,2 19,7 25,14 6,8 9,17 9,28zm-68 -83l-17 0 0 31 17 0c12,0 18,-5 18,-16 0,-10 -6,-15 -17,-15zm29 82c0,-11 -8,-17 -24,-17l-23 0 0 34 24 0c15,0 22,-6 22,-17zm218 35c0,5 -2,9 -5,12 -3,3 -8,4 -13,4 -10,0 -16,-6 -20,-18l-5 -16 -62 0 -5 16c-4,12 -10,18 -20,18 -12,0 -18,-5 -18,-16 0,-5 1,-11 4,-19l40 -108c7,-19 17,-28 29,-28 13,0 23,9 29,26l42 112c2,6 3,12 3,17zm-54 -52l-19 -61 -1 0 -20 61 40 0z"/>
  </g>
 </g>
</svg>
